<svg xmlns="http://www.w3.org/2000/svg" viewBox="0 0 200 220" fill="none">
  <path
    d="M100 12 L108 8 L118 10 L128 8 L136 14 L140 22 L148 26 L152 34 L148 42
       L152 50 L158 56 L162 66 L158 74 L162 82 L158 90 L156 100 L160 108 L158 118
       L154 126 L148 132 L144 140 L140 150 L136 158 L130 164 L124 170 L118 176
       L112 182 L106 188 L100 194 L94 188 L88 182 L82 176 L76 170 L70 164 L64 158
       L60 150 L56 140 L52 132 L48 126 L44 118 L42 108 L46 100 L44 90 L42 82
       L38 74 L34 66 L38 56 L44 50 L48 42 L44 34 L52 26 L60 22 L64 14 L72 8
       L82 10 L92 8 Z"
    fill="#1562CA"
    opacity="0.15"
  />
  <path
    fill-rule="evenodd"
    clip-rule="evenodd"
    d="M104 10 C108 9 114 9 120 11 C126 13 132 10 138 15 C143 20 147 27 150 34
       C153 41 150 46 154 52 C158 58 163 65 162 74 C161 82 158 87 161 95
       C164 103 161 112 158 120 C155 128 150 133 146 141 C142 149 138 157 133 163
       C128 169 122 175 116 181 C110 187 105 193 100 196
       C95 193 90 187 84 181 C78 175 72 169 67 163 C62 157 58 149 54 141
       C50 133 45 128 42 120 C39 112 36 103 39 95 C42 87 39 82 38 74
       C37 65 42 58 46 52 C50 46 47 41 50 34 C53 27 57 20 62 15
       C68 10 74 13 80 11 C86 9 92 9 96 10 Z"
    fill="#0D4099"
    opacity="0.85"
  />
  <!-- Región Caribe (norte) -->
  <path d="M82 12 C88 8 96 8 100 10 C104 8 112 8 118 12 C124 16 130 12 136 16 C140 20 138 28 134 28 C128 26 122 28 116 26 C110 24 106 26 100 26 C94 26 90 24 84 26 C78 28 72 26 66 28 C62 28 60 20 64 16 C68 12 76 16 82 12 Z"
    fill="#1562CA" opacity="0.6"/>
  <!-- Punto capital Bogotá -->
  <circle cx="102" cy="122" r="4" fill="#FFFFFF" opacity="0.9"/>
  <circle cx="102" cy="122" r="2" fill="#062C73"/>
</svg>
